<mxfile host="app.diagrams.net" modified="2020-12-17T12:31:04.324Z" agent="5.0 (X11; Linux x86_64) AppleWebKit/537.36 (KHTML, like Gecko) Chrome/87.0.4280.88 Safari/537.36" etag="_yELB1mEHtte8BahOK4p" version="14.0.4" type="github">
  <diagram id="kgpKYQtTHZ0yAKxKKP6v" name="Page-1">
    <mxGraphModel dx="2001" dy="627" grid="1" gridSize="10" guides="1" tooltips="1" connect="1" arrows="1" fold="1" page="1" pageScale="1" pageWidth="850" pageHeight="1100" math="0" shadow="0">
      <root>
        <mxCell id="0" />
        <mxCell id="1" parent="0" />
        <mxCell id="3nuBFxr9cyL0pnOWT2aG-1" value="ApiService/RefreshData" style="shape=umlLifeline;perimeter=lifelinePerimeter;container=1;collapsible=0;recursiveResize=0;rounded=0;shadow=0;strokeWidth=1;" parent="1" vertex="1">
          <mxGeometry x="90" y="80" width="130" height="300" as="geometry" />
        </mxCell>
        <mxCell id="3nuBFxr9cyL0pnOWT2aG-2" value="" style="points=[];perimeter=orthogonalPerimeter;rounded=0;shadow=0;strokeWidth=1;" parent="3nuBFxr9cyL0pnOWT2aG-1" vertex="1">
          <mxGeometry x="45" y="70" width="10" height="190" as="geometry" />
        </mxCell>
        <mxCell id="3nuBFxr9cyL0pnOWT2aG-3" value="[appel api/refreshdataFromDataBase]" style="verticalAlign=bottom;startArrow=oval;endArrow=block;startSize=8;shadow=0;strokeWidth=1;" parent="3nuBFxr9cyL0pnOWT2aG-1" target="3nuBFxr9cyL0pnOWT2aG-2" edge="1">
          <mxGeometry x="0.0286" relative="1" as="geometry">
            <mxPoint x="-130" y="70" as="sourcePoint" />
            <mxPoint as="offset" />
          </mxGeometry>
        </mxCell>
        <mxCell id="3nuBFxr9cyL0pnOWT2aG-5" value="Manager" style="shape=umlLifeline;perimeter=lifelinePerimeter;container=1;collapsible=0;recursiveResize=0;rounded=0;shadow=0;strokeWidth=1;" parent="1" vertex="1">
          <mxGeometry x="250" y="80" width="100" height="490" as="geometry" />
        </mxCell>
        <mxCell id="3nuBFxr9cyL0pnOWT2aG-6" value="" style="points=[];perimeter=orthogonalPerimeter;rounded=0;shadow=0;strokeWidth=1;" parent="3nuBFxr9cyL0pnOWT2aG-5" vertex="1">
          <mxGeometry x="45" y="80" width="10" height="410" as="geometry" />
        </mxCell>
        <mxCell id="DopvcjN36Z4AIwr0QMlW-15" value="nouveau feu" style="verticalAlign=bottom;endArrow=block;shadow=0;strokeWidth=1;entryX=1.02;entryY=0.909;entryDx=0;entryDy=0;entryPerimeter=0;" edge="1" parent="3nuBFxr9cyL0pnOWT2aG-5">
          <mxGeometry x="-0.5888" relative="1" as="geometry">
            <mxPoint x="55" y="307" as="sourcePoint" />
            <mxPoint x="55.19999999999982" y="326.06999999999994" as="targetPoint" />
            <Array as="points">
              <mxPoint x="130" y="307" />
              <mxPoint x="130" y="326" />
            </Array>
            <mxPoint as="offset" />
          </mxGeometry>
        </mxCell>
        <mxCell id="DopvcjN36Z4AIwr0QMlW-23" value="feuEmpire" style="verticalAlign=bottom;endArrow=block;shadow=0;strokeWidth=1;" edge="1" parent="3nuBFxr9cyL0pnOWT2aG-5" source="3nuBFxr9cyL0pnOWT2aG-6" target="3nuBFxr9cyL0pnOWT2aG-6">
          <mxGeometry x="-0.5888" relative="1" as="geometry">
            <mxPoint x="55" y="349" as="sourcePoint" />
            <mxPoint x="55.19999999999982" y="368.06999999999994" as="targetPoint" />
            <Array as="points">
              <mxPoint x="130" y="349" />
              <mxPoint x="130" y="368" />
            </Array>
            <mxPoint as="offset" />
          </mxGeometry>
        </mxCell>
        <mxCell id="3nuBFxr9cyL0pnOWT2aG-8" value="refreshData" style="verticalAlign=bottom;endArrow=block;entryX=0;entryY=0;shadow=0;strokeWidth=1;" parent="1" source="3nuBFxr9cyL0pnOWT2aG-2" target="3nuBFxr9cyL0pnOWT2aG-6" edge="1">
          <mxGeometry relative="1" as="geometry">
            <mxPoint x="275" y="160" as="sourcePoint" />
          </mxGeometry>
        </mxCell>
        <mxCell id="DopvcjN36Z4AIwr0QMlW-1" value="DataBaseConnector" style="shape=umlLifeline;perimeter=lifelinePerimeter;container=1;collapsible=0;recursiveResize=0;rounded=0;shadow=0;strokeWidth=1;" vertex="1" parent="1">
          <mxGeometry x="380" y="80" width="120" height="460" as="geometry" />
        </mxCell>
        <mxCell id="DopvcjN36Z4AIwr0QMlW-2" value="" style="points=[];perimeter=orthogonalPerimeter;rounded=0;shadow=0;strokeWidth=1;" vertex="1" parent="DopvcjN36Z4AIwr0QMlW-1">
          <mxGeometry x="45" y="80" width="10" height="380" as="geometry" />
        </mxCell>
        <mxCell id="DopvcjN36Z4AIwr0QMlW-3" value="MajEffectif" style="verticalAlign=bottom;endArrow=block;shadow=0;strokeWidth=1;exitX=0.997;exitY=0.089;exitDx=0;exitDy=0;exitPerimeter=0;" edge="1" parent="1" target="DopvcjN36Z4AIwr0QMlW-2">
          <mxGeometry relative="1" as="geometry">
            <mxPoint x="304.9699999999998" y="187.14999999999998" as="sourcePoint" />
            <mxPoint x="425.1399999999999" y="207.29999999999995" as="targetPoint" />
          </mxGeometry>
        </mxCell>
        <mxCell id="DopvcjN36Z4AIwr0QMlW-4" value="MajCasernes" style="verticalAlign=bottom;endArrow=block;shadow=0;strokeWidth=1;exitX=0.979;exitY=0.252;exitDx=0;exitDy=0;exitPerimeter=0;" edge="1" parent="1" target="DopvcjN36Z4AIwr0QMlW-2">
          <mxGeometry relative="1" as="geometry">
            <mxPoint x="304.78999999999996" y="238.31999999999994" as="sourcePoint" />
            <mxPoint x="420" y="239" as="targetPoint" />
          </mxGeometry>
        </mxCell>
        <mxCell id="DopvcjN36Z4AIwr0QMlW-5" value="MajFeux" style="verticalAlign=bottom;endArrow=block;shadow=0;strokeWidth=1;exitX=0.979;exitY=0.374;exitDx=0;exitDy=0;exitPerimeter=0;" edge="1" parent="1" target="DopvcjN36Z4AIwr0QMlW-2">
          <mxGeometry relative="1" as="geometry">
            <mxPoint x="304.78999999999996" y="285.84000000000003" as="sourcePoint" />
            <mxPoint x="485.02" y="286.64" as="targetPoint" />
          </mxGeometry>
        </mxCell>
        <mxCell id="DopvcjN36Z4AIwr0QMlW-6" value="return" style="verticalAlign=bottom;endArrow=open;dashed=1;endSize=8;shadow=0;strokeWidth=1;" edge="1" parent="1" source="DopvcjN36Z4AIwr0QMlW-2">
          <mxGeometry relative="1" as="geometry">
            <mxPoint x="305" y="208.12" as="targetPoint" />
            <mxPoint x="483" y="208.12" as="sourcePoint" />
          </mxGeometry>
        </mxCell>
        <mxCell id="DopvcjN36Z4AIwr0QMlW-7" value="return" style="verticalAlign=bottom;endArrow=open;dashed=1;endSize=8;shadow=0;strokeWidth=1;" edge="1" parent="1" source="DopvcjN36Z4AIwr0QMlW-2">
          <mxGeometry relative="1" as="geometry">
            <mxPoint x="305" y="256" as="targetPoint" />
            <mxPoint x="483.47000000000025" y="256" as="sourcePoint" />
          </mxGeometry>
        </mxCell>
        <mxCell id="DopvcjN36Z4AIwr0QMlW-9" value="return" style="verticalAlign=bottom;endArrow=open;dashed=1;endSize=8;shadow=0;strokeWidth=1;entryX=0.906;entryY=0.745;entryDx=0;entryDy=0;entryPerimeter=0;" edge="1" parent="1" source="DopvcjN36Z4AIwr0QMlW-2">
          <mxGeometry relative="1" as="geometry">
            <mxPoint x="304.0600000000002" y="306.19999999999993" as="targetPoint" />
            <mxPoint x="483.7800000000002" y="306.67999999999995" as="sourcePoint" />
          </mxGeometry>
        </mxCell>
        <mxCell id="DopvcjN36Z4AIwr0QMlW-16" value="Mission" style="shape=umlLifeline;perimeter=lifelinePerimeter;container=1;collapsible=0;recursiveResize=0;rounded=0;shadow=0;strokeWidth=1;" vertex="1" parent="1">
          <mxGeometry x="520" y="80" width="100" height="430" as="geometry" />
        </mxCell>
        <mxCell id="DopvcjN36Z4AIwr0QMlW-17" value="" style="points=[];perimeter=orthogonalPerimeter;rounded=0;shadow=0;strokeWidth=1;" vertex="1" parent="DopvcjN36Z4AIwr0QMlW-16">
          <mxGeometry x="45" y="80" width="10" height="350" as="geometry" />
        </mxCell>
        <mxCell id="DopvcjN36Z4AIwr0QMlW-20" value="newMissions" style="verticalAlign=bottom;endArrow=block;shadow=0;strokeWidth=1;" edge="1" parent="1">
          <mxGeometry relative="1" as="geometry">
            <mxPoint x="305" y="461" as="sourcePoint" />
            <mxPoint x="565" y="461" as="targetPoint" />
          </mxGeometry>
        </mxCell>
        <mxCell id="DopvcjN36Z4AIwr0QMlW-21" value="newMission" style="verticalAlign=bottom;endArrow=block;shadow=0;strokeWidth=1;" edge="1" parent="1">
          <mxGeometry relative="1" as="geometry">
            <mxPoint x="305" y="484" as="sourcePoint" />
            <mxPoint x="425" y="484" as="targetPoint" />
          </mxGeometry>
        </mxCell>
        <mxCell id="DopvcjN36Z4AIwr0QMlW-22" value="getMissions" style="verticalAlign=bottom;endArrow=block;shadow=0;strokeWidth=1;exitX=1.257;exitY=0.493;exitDx=0;exitDy=0;exitPerimeter=0;" edge="1" parent="1">
          <mxGeometry relative="1" as="geometry">
            <mxPoint x="307.57000000000016" y="339.13" as="sourcePoint" />
            <mxPoint x="565" y="339.13" as="targetPoint" />
          </mxGeometry>
        </mxCell>
      </root>
    </mxGraphModel>
  </diagram>
</mxfile>
